<?xml version="1.0" encoding="UTF-8" standalone="no"?>
<!-- Generator: Adobe Illustrator 16.0.0, SVG Export Plug-In . SVG Version: 6.00 Build 0)  -->

<svg
   xmlns:dc="http://purl.org/dc/elements/1.1/"
   xmlns:cc="http://creativecommons.org/ns#"
   xmlns:rdf="http://www.w3.org/1999/02/22-rdf-syntax-ns#"
   xmlns:svg="http://www.w3.org/2000/svg"
   xmlns="http://www.w3.org/2000/svg"
   xmlns:xlink="http://www.w3.org/1999/xlink"
   xmlns:sodipodi="http://sodipodi.sourceforge.net/DTD/sodipodi-0.dtd"
   xmlns:inkscape="http://www.inkscape.org/namespaces/inkscape"
   version="1.1"
   id="svg8"
   sodipodi:docname="6 Formica.svg"
   inkscape:version="0.92.5 (2060ec1f9f, 2020-04-08)"
   x="0px"
   y="0px"
   width="600px"
   height="300px"
   viewBox="0 0 600 300"
   enable-background="new 0 0 600 300"
   xml:space="preserve"><metadata
   id="metadata4995"><rdf:RDF><cc:Work
       rdf:about=""><dc:format>image/svg+xml</dc:format><dc:type
         rdf:resource="http://purl.org/dc/dcmitype/StillImage" /></cc:Work></rdf:RDF></metadata><defs
   id="defs4993" />
<sodipodi:namedview
   units="px"
   showguides="false"
   showgrid="false"
   inkscape:cy="106.4"
   inkscape:cx="221.9"
   inkscape:zoom="1.4"
   borderopacity="1.0"
   bordercolor="#666666"
   pagecolor="#ffffff"
   id="base"
   inkscape:window-maximized="0"
   inkscape:window-y="20"
   inkscape:window-x="141"
   inkscape:window-height="1060"
   inkscape:window-width="1690"
   inkscape:snap-bbox="false"
   inkscape:snap-page="false"
   inkscape:snap-grids="false"
   inkscape:snap-to-guides="false"
   inkscape:guide-bbox="true"
   inkscape:current-layer="layer7"
   inkscape:pageshadow="2"
   inkscape:document-units="px"
   inkscape:pageopacity="0.0"
   inkscape:snap-global="false">
	<sodipodi:guide
   inkscape:locked="false"
   orientation="1,0"
   position="-0.3571,189.3"
   id="guide3713" />
	<sodipodi:guide
   inkscape:locked="false"
   orientation="0,1"
   position="58.93,300"
   id="guide3717" />
	<sodipodi:guide
   inkscape:locked="false"
   orientation="0,1"
   position="62.5,0"
   id="guide3719" />
	<sodipodi:guide
   inkscape:locked="false"
   orientation="1,0"
   position="600.7,7.5"
   id="guide3721" />
</sodipodi:namedview>
<g
   id="layer1"
   transform="translate(0,-217.8)"
   inkscape:label="Layer 1"
   sodipodi:insensitive="true"
   inkscape:groupmode="layer"
   display="none">
	
		<image
   sodipodi:absref="F:\Karolek\Web\Mrowki\Wycinane mrowki\95C22F67.png"
   xlink:href="95C22F67.png"
   transform="matrix(0.6697 0 0 0.6695 -9.3513 215.5998)"
   id="image3731"
   height="465"
   width="923"
   enable-background="new    "
   overflow="visible"
   display="inline">
	</image>
</g>
<g
   id="layer2"
   inkscape:label="czolka"
   inkscape:groupmode="layer">
	<path
   id="path3735"
   sodipodi:nodetypes="cccccccc"
   inkscape:connector-curvature="0"
   fill="none"
   stroke="#000000"
   d="M131.1,154.3   l3.3,5c9.4-5.6,18.4-14.1,25.7-19.7c5.4-5,12.4-4.2,19.7-2.7c6.4,4,8.2,0.5,9.1-3.1c-2.5-6.9-6.1-4-9.6-1   c-5.3-1.4-11.1-1.4-15.9-0.5C152,139.5,140.8,149.5,131.1,154.3z" />
	<path
   id="path3737"
   sodipodi:nodetypes="ccccc"
   inkscape:connector-curvature="0"
   fill="none"
   stroke="#000000"
   d="M63.13,193.4   c-2.4,3.8-4.21,7.8-6.061,11.899c-0.439,6.5-2.02,7.9-3.279,0.5c0.31-4.8,1.77-8.5,4.04-12.6C60.45,189.5,60.43,190.2,63.13,193.4   L63.13,193.4z" />
	<path
   id="path3739"
   sodipodi:nodetypes="ccccccccc"
   inkscape:connector-curvature="0"
   fill="none"
   stroke="#000000"
   d="   M67.93,186.4c4.36-2.801,8.86-5.4,13.39-7.9C96.17,172.2,107,169,120.5,163.1c3.1-0.6,6.2-1.399,9.3-2.199   c6.2-3.4,1.8-5.4-1.8-4.301c-10.7,5.7-20.8,5.301-33.8,13.601c-10.83,2.7-12.79,4.5-19.2,7.1c-2.66,2.4-10.54,7.7-12.12,10.8   C58.62,197.2,66.17,188.9,67.93,186.4z" />
	<path
   id="path3741"
   sodipodi:nodetypes="ccccccccc"
   inkscape:connector-curvature="0"
   fill="none"
   stroke="#000000"
   d="M174,127.5   c-1.601-0.2-2.2-0.9-3.3-2c-6.101-2-12.301-3.8-18.4-5.6h-26l-5.3,4.8c-5-8.5-1.101-8,4.3-7.8l27,0.3c7.9,1.2,15.4,3.7,23,6   C178.4,124.9,175.7,126.7,174,127.5z" />
	<path
   id="path3743"
   sodipodi:nodetypes="ccccc"
   inkscape:connector-curvature="0"
   fill="none"
   stroke="#000000"
   d="M118.4,122.2   c-20.989,2.9-41,0.4-64.609,2.3c-5.471,0.5-0.99-3.6,0.76-4.3c23.43-0.3,41.65,1.5,63.35-1.3L118.4,122.2z" />
	<path
   id="path3745"
   sodipodi:nodetypes="ccccc"
   inkscape:connector-curvature="0"
   fill="none"
   stroke="#000000"
   d="M47.48,123   l-7.58,6.5c-1.5,5.6,2.86,4.2,4.551,1.8c-0.5-3.5,3.21-4.4,5.81-6.1C52.73,125.9,52.91,118.5,47.48,123z" />
</g>
<g
   id="layer3"
   inkscape:label="glowa"
   inkscape:groupmode="layer"
   display="none"
   style="display:inline">
	
		<path
   id="path3748"
   sodipodi:nodetypes="csccccc"
   inkscape:connector-curvature="0"
   display="inline"
   d="m 179.8,158.8 c 0,0 -3.8,-1.2 -6.3,-1.7 -2.5,-0.5 -9.1,-4.3 -9.1,-4.3 -0.7,-4.5 1,-8.2 3.5,-11.6 l 0.3,-3.6 8.6,-8.8 c 4.3,10.9 4.8,19 3,30 z"
   style="display:inline;fill:none;stroke:#000000" />
	
		<path
   id="path3750"
   sodipodi:nodetypes="cccccccccc"
   inkscape:connector-curvature="0"
   display="inline"
   d="m 176.5,128.5 c 4.8,9.7 4.3,19 3.8,29.6 l 1.5,3.8 c 5,0.1 6.6,1.9 9.9,5.3 2.1,4.8 14.2,-4.7 20.5,-2.8 14.1,-6.5 26.3,-16.7 30.7,-27 -0.7,-11.2 -5.5,-18.9 -11.3,-28.1 -8.6,-8.3 -16.7,-5.8 -25.5,-4.5 -5.4,1.1 -12.6,5.7 -20,10.8 0.7,-0.4 -10.9,3.7 -9.6,12.9 z"
   style="display:inline;fill:none;stroke:#000000" />
	
		<path
   id="path4557"
   sodipodi:nodetypes="ccccc"
   inkscape:connector-curvature="0"
   display="inline"
   d="m 208.6,129.5 c -3.2,7 -2.3,8.1 0,11.7 8.4,2.9 11.7,-4.1 14.6,-9.4 1,-4.9 0.5,-6.3 -2.7,-9.8 -6.9,-0.8 -8.9,2.3 -11.9,7.5 z"
   style="display:inline;fill:none;stroke:#000000" />
	
		<path
   id="path4559"
   sodipodi:nodetypes="cccccccc"
   inkscape:connector-curvature="0"
   display="inline"
   d="m 176.5,158.1 c 3.5,0 3.9,1 5.6,3.8 3.8,0.1 7.4,1.7 10.6,6.5 -8.7,2.6 -16.8,7.8 -26.5,18.2 -2.9,2.8 -2.9,2.2 -5.3,-0.7 -3.6,-7.3 -3.3,-12.4 0,-19.2 2.8,-3.2 4.1,-2.3 8,-1.3 4.9,1.4 6.3,-2 7.6,-7.3 z"
   style="display:inline;fill:none;stroke:#000000" />
	
		<path
   id="path4561"
   sodipodi:nodetypes="ccccc"
   inkscape:connector-curvature="0"
   display="inline"
   d="m 158.6,171.7 c -1.9,-7.8 1.6,-13.9 5.8,-18.7 l 9.3,4.3 c -2.2,2.7 -5.4,4.9 -6.3,7.6 -7,-1.2 -7,2.8 -8.8,6.8 z"
   style="display:inline;fill:none;stroke:#000000" />
</g>
<g
   id="layer4"
   inkscape:label="cialo"
   inkscape:groupmode="layer"
   style="display:inline">
	<path
   id="path4564"
   sodipodi:nodetypes="cccccccccc"
   inkscape:connector-curvature="0"
   d="m 238.4,121.2 2.5,5.8 c 12.5,11.4 19.6,21.8 34.4,27 l 12.4,-0.8 c -0.3,-6.4 6,-2 4.2,-9.3 -2.1,-4 -1.5,-4.6 1.3,-7.8 l -3.3,-5.3 c -5.3,-7.3 -7.1,-13.9 -6,-21.7 -10.7,-5.4 -25.4,-2.3 -35.9,8.6 -3.1,2.4 -5.9,3.1 -9.6,3.5 z"
   style="fill:none;stroke:#000000" />
	<path
   id="path4566"
   sodipodi:nodetypes="ccccccc"
   inkscape:connector-curvature="0"
   d="m 284.1,108.8 c 12.4,3.7 19.4,8.8 26.3,18.7 2.7,16 5.5,32.2 3.8,47.2 -10.7,-4.2 -20.2,-17.3 -22.5,-26.7 0.7,-2.3 0.3,-4 -0.3,-5.6 -1.6,-3 0.4,-3.5 2.1,-6.3 -9,-13.6 -9.6,-14.3 -9.4,-27.3 z"
   style="fill:none;stroke:#000000" />
	<path
   id="path4568"
   sodipodi:nodetypes="ccccccc"
   inkscape:connector-curvature="0"
   d="m 310.9,130.5 c 7.1,1.5 14.5,4.2 21.4,6.2 5,2.8 6.6,4.4 8.4,9.5 -0.2,6.5 0.6,12.1 3.5,15.4 2,5.6 1.7,10.2 1.3,15.7 -10.6,0.2 -22.4,0.2 -30.8,-4.3 0.6,-15.1 -1.7,-29.5 -3.8,-42.5 z"
   style="fill:none;stroke:#000000" />
	<path
   id="path4570"
   sodipodi:nodetypes="cccccc"
   inkscape:connector-curvature="0"
   d="m 288.1,153.3 c 6.9,3.8 8.1,17.5 9.1,27.5 -1.8,8.9 0.2,5.5 -6.5,8.6 2.9,-7 1.7,-9.6 -2.6,-15.2 -6.9,-6 -13.9,-9.5 -20.2,-16.1 16,-5.7 2.6,-1.9 20.2,-4.8 z"
   style="fill:none;stroke:#000000" />
	
	<path
   id="path4574"
   sodipodi:nodetypes="ccccccc"
   inkscape:connector-curvature="0"
   d="m 245.7,161.1 3.6,3.3 c 1.6,4.2 4.7,4.5 8.8,5 5.7,5.9 11.8,11.4 17.9,17 4.9,2.3 9,3.8 14.2,3.2 6.6,-11.2 -2.3,-17.6 -24.2,-31.5 -9.1,-1 -16.6,-4 -20.3,3 z"
   style="fill:none;stroke:#000000" />
	<path
   id="path4576"
   sodipodi:nodetypes="cccccccc"
   inkscape:connector-curvature="0"
   d="m 238.9,166.1 c -15.4,15.6 -27.8,28.7 -34.8,37.9 -2.4,5.7 1.2,6.3 4.5,4.6 -2.2,4.6 -4.9,9 -7.6,13.4 3.6,-4.7 10.2,-10.1 10.6,-15.2 13.7,-11.5 22.5,-22.7 33.4,-36.9 1,-3.6 0.7,-4.8 4.3,-4.8 -4.8,-5.4 -4.6,-2.5 -10.4,1 z"
   style="fill:none;stroke:#000000" />
	<path
   id="path4578"
   sodipodi:nodetypes="ccccccc"
   inkscape:connector-curvature="0"
   d="m 199.5,206.6 c -3,-0.1 -10,7 -10.8,9.6 -7.6,9.1 -12.5,12.3 -16,14.1 l 2.3,4.8 c 6.9,-3.4 10.7,-9.3 15.9,-14.7 3.1,-4.3 7.6,-6.7 12.1,-9 4,-3.1 0,-4.6 -3.5,-4.8 z"
   style="fill:none;stroke:#000000" />
	<path
   id="path4580"
   inkscape:connector-curvature="0"
   d="m 172.7,231.3 -9.1,4.3 1.3,4.3 4,-3.3 5.4,-2.3 z"
   style="fill:none;stroke:#000000" />
	<path
   id="path4582"
   inkscape:connector-curvature="0"
   d="m 155.3,235.9 1.8,6 6.5,-3.5 v -2.8 z"
   style="fill:none;stroke:#000000" />
	<path
   id="path4584"
   inkscape:connector-curvature="0"
   d="m 155.8,239.1 -5,1.3 -1.5,-2.3 -6.6,-1.2 -2.3,3.2 0.5,-6.8 5.6,1.8 7.8,1.3 z"
   style="fill:none;stroke:#000000" />
	<path
   id="path4586"
   sodipodi:nodetypes="ccccccccc"
   inkscape:connector-curvature="0"
   d="m 306.3,133.3 c 1.9,-4.8 7.5,-2.7 9.4,-0.2 -6.3,15.5 -8.1,32.3 -11.4,48.7 0.5,5.9 -0.8,11 -2.8,16.4 l 3.8,14.4 -5,-11.6 c -4.3,-0.5 -4.4,-1.4 -5.6,-5.3 l 2.5,-11.4 c 5.6,-37.3 5.9,-35.6 9.1,-51 z"
   style="fill:none;stroke:#00c800" />
	<path
   id="path4588"
   sodipodi:nodetypes="ccccc"
   inkscape:connector-curvature="0"
   d="m 307.6,165.1 c 3,-10.4 4.1,-21.4 8.1,-31.5 1.2,18.6 5.3,37.1 5.3,55.8 -1.6,6.5 -3,10.6 -8.9,6.6 -4.8,-9.5 -3.8,-20.5 -4.5,-30.9 z"
   style="fill:none;stroke:#d30000" />
	<path
   id="path4590"
   sodipodi:nodetypes="cccc"
   inkscape:connector-curvature="0"
   d="m 320.2,175.2 7.6,1.5 c -0.8,8.9 -0.5,19 -9.9,20.5 4.6,-6.9 2.7,-14.1 2.3,-22 z"
   style="fill:none;stroke:#00e200" />
	<path
   id="path4592"
   sodipodi:nodetypes="sccccs"
   inkscape:connector-curvature="0"
   d="m 299.2,203 c 0.9,-2.1 -2,-1.6 -4.2,-2.5 -3.3,14.5 -7.1,30.2 -11.9,44.2 l 5.3,2.5 -1.3,-5 c 4.5,-13.5 6.4,-26.2 12.1,-39.2 z"
   style="fill:none;stroke:#000000" />
	<path
   id="path4594"
   sodipodi:nodetypes="cccccccccccc"
   inkscape:connector-curvature="0"
   d="m 283.1,245.7 -5.8,9.9 v 0.2 c -1.1,3.9 -3.4,5 -6.6,7.1 l -6.3,1.7 v 3.6 l 5.1,-1.1 5.3,-1.2 4.5,-8.8 3.5,-0.3 2.6,-9.3 z"
   style="fill:none;stroke:#000000" />
	<path
   id="path4596"
   sodipodi:nodetypes="cccccc"
   inkscape:connector-curvature="0"
   d="m 345.5,177 -15.9,-0.2 c -0.4,5.9 1.7,10.6 3.8,15.9 12.9,6.7 17.9,7.7 29.7,0.7 -4.9,-0.8 -7,-1.6 -9.5,-5.5 -0.5,-4.9 -4.8,-7.6 -8.1,-10.9 z"
   style="fill:none;stroke:#000000" />
	<path
   id="path4598"
   sodipodi:nodetypes="ccccc"
   inkscape:connector-curvature="0"
   d="m 354.6,189.6 c -0.3,-25.4 10.6,-49.8 25.2,-69.9 9.6,-1.4 9.1,5.3 5.8,8.6 -20,55.3 -11.8,37 -18.4,57 -3.9,9.4 -5.7,8.8 -12.6,4.3 z"
   style="fill:none;stroke:#000000" />
	<path
   id="path4600"
   sodipodi:nodetypes="ccccc"
   inkscape:connector-curvature="0"
   d="m 387.1,124 c -1.2,-6 -2.7,-4.7 4.1,-4.1 l 62.9,57.9 c 15.4,6 2.2,11.8 -6.9,8.1 -26.2,-18.9 -36.6,-48.8 -60.1,-61.9 z"
   style="fill:none;stroke:#000000" />
	<path
   id="path4602"
   sodipodi:nodetypes="ccccc"
   inkscape:connector-curvature="0"
   d="m 455.6,187.6 c 11.9,19.4 26,32.8 41.1,48.8 3.7,-2.1 4.1,-1.9 1.8,-5.3 -16.2,-12.6 -28.6,-31.6 -38.9,-45.8 z"
   style="fill:none;stroke:#000000" />
	<path
   id="path4604"
   sodipodi:nodetypes="ccccccccccccc"
   inkscape:connector-curvature="0"
   d="m 498,236.6 11.9,4.8 c 1.2,3 1.4,3 4.3,2.5 l 7.3,2.8 c 2.3,2.7 2.4,3.7 5.3,2 1.8,1.4 3.8,2.5 5.8,3.6 1.7,-0.8 2.2,-2.2 3,-3.8 l -7.3,-1 -2.3,-2.8 c -4.2,-0.1 -7.8,-1.3 -11.6,-3 -0.3,-2.9 -1.4,-2.3 -4,-2.3 -3.8,-3.6 -6.7,-3.8 -11.6,-4 z"
   style="fill:none;stroke:#000000" />
	<path
   id="path4606"
   sodipodi:nodetypes="cccccc"
   inkscape:connector-curvature="0"
   d="m 534.4,251.3 6.5,1.2 c 0.9,2.4 1,4.6 1,7.1 2.9,-3.3 4.2,-4 2.3,-7.8 l -8.3,-2.6 z"
   style="fill:none;stroke:#000000" />
</g><g
   inkscape:groupmode="layer"
   id="layer7"
   inkscape:label="edytowany element"><path
     style="display:inline;fill:none;stroke:#000000"
     d="m 240.8,127.3 c -7.1,-0.6 -3.1,13.9 0,13.1 l 7.4,-0.7 c 5,6.8 11.4,12.5 17.9,17.7 0,1.4 4.1,-1.8 12.1,-3.6 -13,1.3 -25.9,-14.9 -37.4,-26.5 z"
     inkscape:connector-curvature="0"
     sodipodi:nodetypes="cccccc"
     id="path5540" /></g>
<g
   id="layer5"
   inkscape:label="polaczenie"
   inkscape:groupmode="layer">
	<path
   id="path4609"
   sodipodi:nodetypes="ccccccc"
   inkscape:connector-curvature="0"
   fill="none"
   stroke="#000000"
   d="M345.5,163.4   c0.399,1,2.6-14.5,2.199-22.5c4.7-7.1,1.7-6.5,7.801-0.6c7.199,14.2,8.199,19.601,7.6,35l3.8,7.3c-4.399,1.4-9.6,3.301-16.6-1.3   C344.1,176.1,345.5,171,345.5,163.4z" />
</g>
<g
   id="layer6"
   inkscape:label="odwlok"
   inkscape:groupmode="layer">
	<path
   id="path4612"
   sodipodi:nodetypes="cccccccc"
   inkscape:connector-curvature="0"
   fill="none"
   stroke="#000000"
   d="M366.4,129.8   c15.3-10.9,26.7-14.8,43-12.6c3.9,2.3,0.2,2.4-2.6,3.5c-12.101,22.5-15,41.7-14.9,64.6l-5.3,1.101   c-17.6-4.101-16.5-8.101-19.9-15.7l-5.8-22.9C361.1,138.5,364.199,132.6,366.4,129.8L366.4,129.8z" />
	<path
   id="path4614"
   sodipodi:nodetypes="cccccccc"
   inkscape:connector-curvature="0"
   fill="none"
   stroke="#00B500"
   d="M412.6,119.9   c14.5,4.3,25.8,8.4,36.9,17.2c1.899,2.8,1.899,3.2,0,5.8c-12.101,11.2-18.801,24.9-27.5,39.4c-4,9.5-9.2,11.4-18.2,13.9   c-4.5-0.601-11.4-3.4-11.3-10.101c-1-21.1,2-41,12.6-62.899C404.4,121,410.3,118.4,412.6,119.9z" />
	<path
   id="path4616"
   sodipodi:nodetypes="ccccccccc"
   inkscape:connector-curvature="0"
   fill="none"
   stroke="#000000"
   d="   M450.3,142.4c3.7-1.5,4-0.4,6.3,2.5l9.3,12.4c1.4,3.4,2.6,5.7,1.3,9.101c-3.1,3.8-19.3,16.199-23.7,23.699   c-9.5,9.301-18.399,10.801-21,9.101c-5.1-0.3-3.899-6.3-4.3-10.3l13.2-22.5C438.6,154.2,444.4,148.7,450.3,142.4L450.3,142.4z" />
	<path
   id="path4618"
   sodipodi:nodetypes="cscccccccc"
   inkscape:connector-curvature="0"
   fill="none"
   stroke="#00BC00"
   d="   M439.699,193.2c-1.3,1.8,2.9-3.101,11.101-11.8c6.399-7,6.1-5.4,15.899-14c2.7-2.101,2.5-1.9,2.801,1.3l1.5,11.1   c0.899,4.9-0.2,7.5-2.5,11.601c-1.301,4.899-2.4,9.899-4.101,14.699c-5-1.8-10.899-2.199-15.899-0.8   c-5.301,1.2-10.801,1.8-16.2,1.8C438.8,201.6,439.4,201.1,439.699,193.2L439.699,193.2z" />
	<path
   id="path4620"
   sodipodi:nodetypes="cccc"
   inkscape:connector-curvature="0"
   fill="none"
   stroke="#000000"
   d="M372.199,181.1   c7.601,3.4,11.801,5.601,19.7,4.2c0.8,4.2,2.5,8,4.101,11.9C385.199,194.9,378.699,189.1,372.199,181.1L372.199,181.1z" />
	<path
   id="path4622"
   sodipodi:nodetypes="cccccc"
   inkscape:connector-curvature="0"
   fill="none"
   stroke="#D20000"
   d="M393.699,191.7   c6.601,5.6,13.601,6.5,24-2.3c0.7,3,0.9,6,1,9.1c0.101,3.6,0.101,3.8-3.3,4.3c-6.399,0-9.1-1.1-14.6-3.8   C397,198.2,394.8,195.1,393.699,191.7z" />
	<path
   id="path4624"
   sodipodi:nodetypes="ccccc"
   inkscape:connector-curvature="0"
   fill="none"
   stroke="#0000E3"
   d="M419,197.5   c7.399,5.8,13.5-0.4,20.199-3.3c0.301,4.399-1.3,9.6-6.1,11.8c-5.8-0.2-7-0.9-12.6-3.5C418.9,200.5,418.8,200,419,197.5z" />
</g>
</svg>