<?xml version="1.0" encoding="UTF-8" standalone="no"?>
<!-- Creator: CorelDRAW X7 -->

<svg
   xmlns:dc="http://purl.org/dc/elements/1.1/"
   xmlns:cc="http://creativecommons.org/ns#"
   xmlns:rdf="http://www.w3.org/1999/02/22-rdf-syntax-ns#"
   xmlns:svg="http://www.w3.org/2000/svg"
   xmlns="http://www.w3.org/2000/svg"
   xmlns:xlink="http://www.w3.org/1999/xlink"
   xmlns:sodipodi="http://sodipodi.sourceforge.net/DTD/sodipodi-0.dtd"
   xmlns:inkscape="http://www.inkscape.org/namespaces/inkscape"
   xml:space="preserve"
   width="600px"
   height="300px"
   version="1.0"
   style="shape-rendering:geometricPrecision; text-rendering:geometricPrecision; image-rendering:optimizeQuality; fill-rule:evenodd; clip-rule:evenodd"
   viewBox="0 0 600 300"
   inkscape:version="0.92.5 (2060ec1f9f, 2020-04-08)"
   sodipodi:docname="8 Tapinoma5.svg"
   id="svg7448"><metadata
   id="metadata7452"><rdf:RDF><cc:Work
       rdf:about=""><dc:format>image/svg+xml</dc:format><dc:type
         rdf:resource="http://purl.org/dc/dcmitype/StillImage" /></cc:Work></rdf:RDF></metadata><sodipodi:namedview
   pagecolor="#ffffff"
   bordercolor="#666666"
   borderopacity="1"
   objecttolerance="10"
   gridtolerance="10"
   guidetolerance="10"
   inkscape:pageopacity="0"
   inkscape:pageshadow="2"
   inkscape:window-width="1504"
   inkscape:window-height="1042"
   id="namedview7450"
   showgrid="false"
   inkscape:zoom="6.468"
   inkscape:cx="155.9"
   inkscape:cy="145.8"
   inkscape:window-x="249"
   inkscape:window-y="0"
   inkscape:window-maximized="0"
   inkscape:current-layer="layer8" />
 <defs
   id="defs7172">
  <style
   type="text/css"
   id="style7170">
   <![CDATA[
    .str12 {stroke:black;stroke-width:0.999213}
    .str10 {stroke:#0000CC;stroke-width:0.999213}
    .str11 {stroke:#0049E3;stroke-width:0.999213}
    .str7 {stroke:#00A000;stroke-width:0.999213}
    .str6 {stroke:#00D300;stroke-width:0.999213}
    .str4 {stroke:#75BA00;stroke-width:0.999213}
    .str5 {stroke:#8A0000;stroke-width:0.999213}
    .str8 {stroke:#9B7500;stroke-width:0.999213}
    .str9 {stroke:#B10000;stroke-width:0.999213}
    .str13 {stroke:#BE0000;stroke-width:0.999213}
    .str3 {stroke:#C10000;stroke-width:0.999213}
    .str2 {stroke:#C30000;stroke-width:0.999213}
    .str1 {stroke:#D20000;stroke-width:0.999213}
    .str14 {stroke:#D70000;stroke-width:0.999213}
    .str0 {stroke:#E00000;stroke-width:0.999213}
    .fil0 {fill:none}
   ]]>
  </style>
 </defs>
 <g
   id="Warstwa_x0020_1">
  <metadata
   id="CorelCorpID_0Corel-Layer" />
  <a
   xlink:href=""
   id="a7175">
  </a>
  <a
   xlink:href=""
   id="a7177">
  </a>
  <g
   id="_725052416">
   <g
   id="g7279">
    <g
   id="g7181">
     <path
   id="czolka"
   class="fil0 str0"
   d="M110 169c-3,1 -3,4 -3,7 5,5 7,0 9,-1 26,-28 15,-16 24,-26l11 -11c7,-5 12,-6 14,-3l5 1c6,-2 6,-2 6,-4 -1,-6 -5,-6 -7,-6l-3 3 -9 0c-6,2 -10,6 -14,8l-29 31 -4 1z"
   inkscape:label="#path4600"
   sodipodi:nodetypes="cccccccccccccc"
   inkscape:connector-curvature="0" />
     <path
   id="path5421"
   class="fil0 str0"
   d="M110 169c-3,1 -3,4 -3,7 5,5 7,0 9,-1 26,-28 15,-16 24,-26l11 -11c7,-5 12,-6 14,-3l5 1c6,-2 6,-2 6,-4 -1,-6 -5,-6 -7,-6l-3 3 -9 0c-6,2 -10,6 -14,8l-29 31 -4 1z"
   inkscape:label="#path4600"
   sodipodi:nodetypes="cccccccccccccc"
   inkscape:connector-curvature="0" />
    </g>
    <g
   id="g7277">
     <path
   id="path4602"
   class="fil0 str1"
   d="M92 181c3,-3 9,-3 14,-4 1,1 5,2 1,4 -5,2 -5,2 -12,5 -3,-1 -5,-1 -3,-5z"
   sodipodi:nodetypes="ccccc"
   inkscape:connector-curvature="0" />
     <path
   id="path4604"
   class="fil0 str2"
   d="M80 184c-2,2 0,3 1,4 3,0 3,1 8,-1 1,-1 3,-4 0,-6 -1,0 -5,0 -9,3z"
   sodipodi:nodetypes="ccccc"
   inkscape:connector-curvature="0" />
     <path
   id="path4604-1"
   class="fil0 str2"
   d="M69 187c-1,2 0,3 2,5 3,-1 3,0 8,-3 1,0 2,-3 0,-5 -1,0 -5,0 -10,3l0 0z"
   sodipodi:nodetypes="ccccc"
   inkscape:connector-curvature="0" />
     <path
   id="path4604-9"
   class="fil0 str2"
   d="M59 190c-1,2 0,4 3,5 2,0 1,1 6,-2 1,-1 2,-3 0,-5 -1,0 -4,0 -9,2l0 0z"
   sodipodi:nodetypes="ccccc"
   inkscape:connector-curvature="0" />
     <path
   id="path4604-5-0"
   class="fil0 str2"
   d="M41 199c-1,2 0,4 2,5 3,-1 3,-3 7,-4 1,-2 1,-2 -1,-4 -1,0 -4,0 -8,3z"
   sodipodi:nodetypes="ccccc"
   inkscape:connector-curvature="0" />
     <path
   id="path4604-5-0-9"
   class="fil0 str2"
   d="M50 195c-1,2 0,4 2,4 3,-1 3,-2 7,-3 1,-2 1,-2 -1,-5 -1,0 -3,0 -8,4z"
   sodipodi:nodetypes="ccccc"
   inkscape:connector-curvature="0" />
     <path
   id="path4604-5-0-6"
   class="fil0 str2"
   d="M32 204c-1,3 0,4 2,5 3,-1 3,-2 7,-3 1,-3 1,-2 -1,-5 -1,0 -4,0 -8,3z"
   sodipodi:nodetypes="ccccc"
   inkscape:connector-curvature="0" />
     <path
   id="path4604-5-0-4"
   class="fil0 str2"
   d="M23 209c-1,3 0,4 2,5 3,-1 3,-3 7,-3 1,-3 1,-3 -1,-5 -1,0 -4,0 -8,3z"
   sodipodi:nodetypes="ccccc"
   inkscape:connector-curvature="0" />
     <path
   id="path4604-5-0-4-6"
   class="fil0 str2"
   d="M14 215c-1,3 0,4 2,5 3,-1 3,-3 7,-3 1,-3 1,-3 -1,-5 -1,0 -4,0 -8,3z"
   sodipodi:nodetypes="ccccc"
   inkscape:connector-curvature="0" />
     <path
   id="path4604-5-0-4-7"
   class="fil0 str2"
   d="M3 223c-1,3 3,5 5,6 3,-1 3,-4 6,-7 1,-2 1,-2 -1,-4 -2,0 -8,2 -10,5z"
   sodipodi:nodetypes="ccccc"
   inkscape:connector-curvature="0" />
     <path
   id="path4604-5-0-4-8"
   class="fil0 str2"
   d="M-9 239c-2,2 -1,4 1,4 6,-1 13,-10 12,-13 1,-2 2,-3 -2,-4 -7,2 -11,11 -11,13l0 0z"
   sodipodi:nodetypes="ccccc"
   inkscape:connector-curvature="0" />
     <g
   id="g7196">
      <path
   class="fil0 str2"
   d="M80 184c-2,2 0,3 1,4 3,0 3,1 8,-1 1,-1 3,-4 0,-6 -1,0 -5,0 -9,3z"
   id="path7194" />
     </g>
     <g
   id="g7200">
      <path
   class="fil0 str2"
   d="M69 187c-1,2 0,3 2,5 3,-1 3,0 8,-3 1,0 2,-3 0,-5 -1,0 -5,0 -10,3l0 0z"
   id="path7198" />
     </g>
     <g
   id="g7204">
      <path
   class="fil0 str2"
   d="M59 190c-1,2 0,4 3,5 2,0 1,1 6,-2 1,-1 2,-3 0,-5 -1,0 -4,0 -9,2l0 0z"
   id="path7202" />
     </g>
     <g
   id="g7208">
      <path
   class="fil0 str2"
   d="M41 199c-1,2 0,4 2,5 3,-1 3,-3 7,-4 1,-2 1,-2 -1,-4 -1,0 -4,0 -8,3z"
   id="path7206" />
     </g>
     <g
   id="g7212">
      <path
   class="fil0 str2"
   d="M50 195c-1,2 0,4 2,4 3,-1 3,-2 7,-3 1,-2 1,-2 -1,-5 -1,0 -3,0 -8,4z"
   id="path7210" />
     </g>
     <g
   id="g7216">
      <path
   class="fil0 str2"
   d="M32 204c-1,3 0,4 2,5 3,-1 3,-2 7,-3 1,-3 1,-2 -1,-5 -1,0 -4,0 -8,3z"
   id="path7214" />
     </g>
     <g
   id="g7220">
      <path
   class="fil0 str2"
   d="M14 215c-1,3 0,4 2,5 3,-1 3,-3 7,-3 1,-3 1,-3 -1,-5 -1,0 -4,0 -8,3z"
   id="path7218" />
     </g>
     <g
   id="g7224">
      <path
   class="fil0 str2"
   d="M3 223c-1,3 3,5 5,6 3,-1 3,-4 6,-7 1,-2 1,-2 -1,-4 -2,0 -8,2 -10,5z"
   id="path7222" />
     </g>
     <g
   id="g7228">
      <path
   class="fil0 str2"
   d="M-9 239c-2,2 -1,4 1,4 6,-1 13,-10 12,-13 1,-2 2,-3 -2,-4 -7,2 -11,11 -11,13l0 0z"
   id="path7226" />
     </g>
     <path
   id="path5425"
   class="fil0 str1"
   d="M92 181c3,-3 9,-3 14,-4 1,1 5,2 1,4 -5,2 -5,2 -12,5 -3,-1 -5,-1 -3,-5z"
   sodipodi:nodetypes="ccccc"
   inkscape:connector-curvature="0" />
     <path
   id="path5427"
   class="fil0 str2"
   d="M80 184c-2,2 0,3 1,4 3,0 3,1 8,-1 1,-1 3,-4 0,-6 -1,0 -5,0 -9,3z"
   sodipodi:nodetypes="ccccc"
   inkscape:connector-curvature="0" />
     <path
   id="path5429"
   class="fil0 str2"
   d="M69 187c-1,2 0,3 2,5 3,-1 3,0 8,-3 1,0 2,-3 0,-5 -1,0 -5,0 -10,3l0 0z"
   sodipodi:nodetypes="ccccc"
   inkscape:connector-curvature="0" />
     <path
   id="path5431"
   class="fil0 str2"
   d="M59 190c-1,2 0,4 3,5 2,0 1,1 6,-2 1,-1 2,-3 0,-5 -1,0 -4,0 -9,2l0 0z"
   sodipodi:nodetypes="ccccc"
   inkscape:connector-curvature="0" />
     <path
   id="path5433"
   class="fil0 str2"
   d="M41 199c-1,2 0,4 2,5 3,-1 3,-3 7,-4 1,-2 1,-2 -1,-4 -1,0 -4,0 -8,3z"
   sodipodi:nodetypes="ccccc"
   inkscape:connector-curvature="0" />
     <path
   id="path5435"
   class="fil0 str2"
   d="M50 195c-1,2 0,4 2,4 3,-1 3,-2 7,-3 1,-2 1,-2 -1,-5 -1,0 -3,0 -8,4z"
   sodipodi:nodetypes="ccccc"
   inkscape:connector-curvature="0" />
     <path
   id="path5437"
   class="fil0 str2"
   d="M32 204c-1,3 0,4 2,5 3,-1 3,-2 7,-3 1,-3 1,-2 -1,-5 -1,0 -4,0 -8,3z"
   sodipodi:nodetypes="ccccc"
   inkscape:connector-curvature="0" />
     <path
   id="path5439"
   class="fil0 str2"
   d="M23 209c-1,3 0,4 2,5 3,-1 3,-3 7,-3 1,-3 1,-3 -1,-5 -1,0 -4,0 -8,3z"
   sodipodi:nodetypes="ccccc"
   inkscape:connector-curvature="0" />
     <path
   id="path5441"
   class="fil0 str2"
   d="M14 215c-1,3 0,4 2,5 3,-1 3,-3 7,-3 1,-3 1,-3 -1,-5 -1,0 -4,0 -8,3z"
   sodipodi:nodetypes="ccccc"
   inkscape:connector-curvature="0" />
     <path
   id="path5443"
   class="fil0 str2"
   d="M3 223c-1,3 3,5 5,6 3,-1 3,-4 6,-7 1,-2 1,-2 -1,-4 -2,0 -8,2 -10,5z"
   sodipodi:nodetypes="ccccc"
   inkscape:connector-curvature="0" />
     <path
   id="path5445"
   class="fil0 str2"
   d="M-9 239c-2,2 -1,4 1,4 6,-1 13,-10 12,-13 1,-2 2,-3 -2,-4 -7,2 -11,11 -11,13l0 0z"
   sodipodi:nodetypes="ccccc"
   inkscape:connector-curvature="0" />
     <g
   id="g7243">
      <path
   class="fil0 str2"
   d="M80 184c-2,2 0,3 1,4 3,0 3,1 8,-1 1,-1 3,-4 0,-6 -1,0 -5,0 -9,3z"
   id="path7241" />
     </g>
     <g
   id="g7247">
      <path
   class="fil0 str2"
   d="M69 187c-1,2 0,3 2,5 3,-1 3,0 8,-3 1,0 2,-3 0,-5 -1,0 -5,0 -10,3l0 0z"
   id="path7245" />
     </g>
     <g
   id="g7251">
      <path
   class="fil0 str2"
   d="M59 190c-1,2 0,4 3,5 2,0 1,1 6,-2 1,-1 2,-3 0,-5 -1,0 -4,0 -9,2l0 0z"
   id="path7249" />
     </g>
     <g
   id="g7255">
      <path
   class="fil0 str2"
   d="M41 199c-1,2 0,4 2,5 3,-1 3,-3 7,-4 1,-2 1,-2 -1,-4 -1,0 -4,0 -8,3z"
   id="path7253" />
     </g>
     <g
   id="g7259">
      <path
   class="fil0 str2"
   d="M50 195c-1,2 0,4 2,4 3,-1 3,-2 7,-3 1,-2 1,-2 -1,-5 -1,0 -3,0 -8,4z"
   id="path7257" />
     </g>
     <g
   id="g7263">
      <path
   class="fil0 str2"
   d="M32 204c-1,3 0,4 2,5 3,-1 3,-2 7,-3 1,-3 1,-2 -1,-5 -1,0 -4,0 -8,3z"
   id="path7261" />
     </g>
     <g
   id="g7267">
      <path
   class="fil0 str2"
   d="M14 215c-1,3 0,4 2,5 3,-1 3,-3 7,-3 1,-3 1,-3 -1,-5 -1,0 -4,0 -8,3z"
   id="path7265" />
     </g>
     <g
   id="g7271">
      <path
   class="fil0 str2"
   d="M3 223c-1,3 3,5 5,6 3,-1 3,-4 6,-7 1,-2 1,-2 -1,-4 -2,0 -8,2 -10,5z"
   id="path7269" />
     </g>
     <g
   id="g7275">
      <path
   class="fil0 str2"
   d="M-9 239c-2,2 -1,4 1,4 6,-1 13,-10 12,-13 1,-2 2,-3 -2,-4 -7,2 -11,11 -11,13l0 0z"
   id="path7273" />
     </g>
    </g>
   </g>
   <g
   id="g7401">
    <path
   id="path4702"
   class="fil0 str3"
   d="M165 115c0,-1 -1,-1 -2,-2 -1,0 -2,1 -4,-1 -6,-6 -17,-11 -26,-16 -1,1 -3,0 -6,-1 0,-2 -2,-3 1,-5 3,-3 6,1 8,1l2 1c9,5 13,10 24,15 3,0 3,1 3,3 1,1 2,1 3,1l-3 4z"
   sodipodi:nodetypes="cccccccccccc"
   inkscape:connector-curvature="0" />
    <path
   id="path4604-1-7"
   class="fil0 str2"
   d="M102 91c-1,2 0,4 2,4 5,0 3,0 9,-1 1,0 1,-3 -1,-5 -1,1 -6,0 -10,2z"
   sodipodi:nodetypes="ccccc"
   inkscape:connector-curvature="0" />
    <path
   id="path4604-1-7-4"
   class="fil0 str2"
   d="M90 93c-1,2 0,3 1,4 5,-1 4,0 10,-1 0,0 1,-3 -1,-5 -1,1 -6,0 -10,2l0 0z"
   sodipodi:nodetypes="ccccc"
   inkscape:connector-curvature="0" />
    <path
   id="path4604-1-7-0"
   class="fil0 str2"
   d="M115 90c-2,2 -1,3 1,4 3,-1 3,0 9,-1 1,0 2,-3 0,-5 -1,1 -7,0 -10,2z"
   sodipodi:nodetypes="ccccc"
   inkscape:connector-curvature="0" />
    <path
   id="path4604-1-7-2"
   class="fil0 str2"
   d="M81 93c-1,3 0,3 1,5 7,-2 2,-1 7,-1 1,0 2,-3 0,-5 -1,0 -4,-1 -8,1z"
   sodipodi:nodetypes="ccccc"
   inkscape:connector-curvature="0" />
    <path
   id="path4604-1-7-2-8"
   class="fil0 str2"
   d="M73 95c-1,2 0,3 1,4 4,-1 1,0 6,-1 1,0 2,-2 0,-4 -1,0 -3,-1 -7,1l0 0z"
   sodipodi:nodetypes="ccccc"
   inkscape:connector-curvature="0" />
    <path
   id="path4604-1-7-2-8-4"
   class="fil0 str2"
   d="M65 96c-1,2 0,3 1,4 3,0 1,0 6,-1 0,0 2,-2 -1,-4 -1,0 -3,-1 -6,1l0 0z"
   sodipodi:nodetypes="ccccc"
   inkscape:connector-curvature="0" />
    <path
   id="path4604-1-7-2-8-4-7"
   class="fil0 str2"
   d="M56 97c-1,2 0,3 2,4 3,0 0,0 5,-1 1,0 2,-2 0,-4 -1,0 -3,-1 -7,1l0 0z"
   sodipodi:nodetypes="ccccc"
   inkscape:connector-curvature="0" />
    <path
   id="path4604-1-7-2-8-4-5"
   class="fil0 str2"
   d="M48 99c-1,2 0,3 1,4 3,0 1,0 6,-1 0,0 2,-2 -1,-4 -1,0 -3,-1 -6,1l0 0z"
   sodipodi:nodetypes="ccccc"
   inkscape:connector-curvature="0" />
    <path
   id="path4604-1-7-9"
   class="fil0 str2"
   d="M17 109c-1,2 0,4 1,4 6,0 7,-4 11,-6 1,0 2,-3 0,-5 -3,0 -13,4 -12,7z"
   sodipodi:nodetypes="ccccc"
   inkscape:connector-curvature="0" />
    <path
   id="path4604-1-7-2-8-4-7-2"
   class="fil0 str2"
   d="M30 101c-1,2 0,4 2,5 3,0 0,0 5,-1 1,0 3,-3 1,-5 -1,0 -3,0 -6,1 -1,0 -1,0 -2,0l0 0z"
   sodipodi:nodetypes="scccss"
   inkscape:connector-curvature="0" />
    <path
   id="path4604-1-7-2-8-4-7-1"
   class="fil0 str2"
   d="M40 100c-2,2 -1,3 1,4 3,0 0,0 5,-1 1,0 2,-2 0,-4 -1,0 -3,-1 -6,1l0 0z"
   sodipodi:nodetypes="ccccc"
   inkscape:connector-curvature="0" />
    <g
   id="g7295">
     <path
   class="fil0 str3"
   d="M165 115c0,-1 -1,-1 -2,-2 -1,0 -2,1 -4,-1 -6,-6 -17,-11 -26,-16 -1,1 -3,0 -6,-1 0,-2 -2,-3 1,-5 3,-3 6,1 8,1l2 1c9,5 13,10 24,15 3,0 3,1 3,3 1,1 2,1 3,1l-3 4z"
   id="path7293" />
    </g>
    <g
   id="g7299">
     <path
   class="fil0 str2"
   d="M102 91c-1,2 0,4 2,4 5,0 3,0 9,-1 1,0 1,-3 -1,-5 -1,1 -6,0 -10,2z"
   id="path7297" />
    </g>
    <g
   id="g7303">
     <path
   class="fil0 str2"
   d="M90 93c-1,2 0,3 1,4 5,-1 4,0 10,-1 0,0 1,-3 -1,-5 -1,1 -6,0 -10,2l0 0z"
   id="path7301" />
    </g>
    <g
   id="g7307">
     <path
   class="fil0 str2"
   d="M115 90c-2,2 -1,3 1,4 3,-1 3,0 9,-1 1,0 2,-3 0,-5 -1,1 -7,0 -10,2z"
   id="path7305" />
    </g>
    <g
   id="g7311">
     <path
   class="fil0 str2"
   d="M81 93c-1,3 0,3 1,5 7,-2 2,-1 7,-1 1,0 2,-3 0,-5 -1,0 -4,-1 -8,1z"
   id="path7309" />
    </g>
    <g
   id="g7315">
     <path
   class="fil0 str2"
   d="M73 95c-1,2 0,3 1,4 4,-1 1,0 6,-1 1,0 2,-2 0,-4 -1,0 -3,-1 -7,1l0 0z"
   id="path7313" />
    </g>
    <g
   id="g7319">
     <path
   class="fil0 str2"
   d="M65 96c-1,2 0,3 1,4 3,0 1,0 6,-1 0,0 2,-2 -1,-4 -1,0 -3,-1 -6,1l0 0z"
   id="path7317" />
    </g>
    <g
   id="g7323">
     <path
   class="fil0 str2"
   d="M56 97c-1,2 0,3 2,4 3,0 0,0 5,-1 1,0 2,-2 0,-4 -1,0 -3,-1 -7,1l0 0z"
   id="path7321" />
    </g>
    <g
   id="g7327">
     <path
   class="fil0 str2"
   d="M48 99c-1,2 0,3 1,4 3,0 1,0 6,-1 0,0 2,-2 -1,-4 -1,0 -3,-1 -6,1l0 0z"
   id="path7325" />
    </g>
    <g
   id="g7331">
     <path
   class="fil0 str2"
   d="M17 109c-1,2 0,4 1,4 6,0 7,-4 11,-6 1,0 2,-3 0,-5 -3,0 -13,4 -12,7z"
   id="path7329" />
    </g>
    <g
   id="g7335">
     <path
   class="fil0 str2"
   d="M30 101c-1,2 0,4 2,5 3,0 0,0 5,-1 1,0 3,-3 1,-5 -1,0 -3,0 -6,1 -1,0 -1,0 -2,0l0 0z"
   id="path7333" />
    </g>
    <g
   id="g7339">
     <path
   class="fil0 str2"
   d="M40 100c-2,2 -1,3 1,4 3,0 0,0 5,-1 1,0 2,-2 0,-4 -1,0 -3,-1 -6,1l0 0z"
   id="path7337" />
    </g>
    <path
   id="path5447"
   class="fil0 str3"
   d="M165 115c0,-1 -1,-1 -2,-2 -1,0 -2,1 -4,-1 -6,-6 -17,-11 -26,-16 -1,1 -3,0 -6,-1 0,-2 -2,-3 1,-5 3,-3 6,1 8,1l2 1c9,5 13,10 24,15 3,0 3,1 3,3 1,1 2,1 3,1l-3 4z"
   sodipodi:nodetypes="cccccccccccc"
   inkscape:connector-curvature="0" />
    <path
   id="path5449"
   class="fil0 str2"
   d="M102 91c-1,2 0,4 2,4 5,0 3,0 9,-1 1,0 1,-3 -1,-5 -1,1 -6,0 -10,2z"
   sodipodi:nodetypes="ccccc"
   inkscape:connector-curvature="0" />
    <path
   id="path5451"
   class="fil0 str2"
   d="M90 93c-1,2 0,3 1,4 5,-1 4,0 10,-1 0,0 1,-3 -1,-5 -1,1 -6,0 -10,2l0 0z"
   sodipodi:nodetypes="ccccc"
   inkscape:connector-curvature="0" />
    <path
   id="path5453"
   class="fil0 str2"
   d="M115 90c-2,2 -1,3 1,4 3,-1 3,0 9,-1 1,0 2,-3 0,-5 -1,1 -7,0 -10,2z"
   sodipodi:nodetypes="ccccc"
   inkscape:connector-curvature="0" />
    <path
   id="path5455"
   class="fil0 str2"
   d="M81 93c-1,3 0,3 1,5 7,-2 2,-1 7,-1 1,0 2,-3 0,-5 -1,0 -4,-1 -8,1z"
   sodipodi:nodetypes="ccccc"
   inkscape:connector-curvature="0" />
    <path
   id="path5457"
   class="fil0 str2"
   d="M73 95c-1,2 0,3 1,4 4,-1 1,0 6,-1 1,0 2,-2 0,-4 -1,0 -3,-1 -7,1l0 0z"
   sodipodi:nodetypes="ccccc"
   inkscape:connector-curvature="0" />
    <path
   id="path5459"
   class="fil0 str2"
   d="M65 96c-1,2 0,3 1,4 3,0 1,0 6,-1 0,0 2,-2 -1,-4 -1,0 -3,-1 -6,1l0 0z"
   sodipodi:nodetypes="ccccc"
   inkscape:connector-curvature="0" />
    <path
   id="path5461"
   class="fil0 str2"
   d="M56 97c-1,2 0,3 2,4 3,0 0,0 5,-1 1,0 2,-2 0,-4 -1,0 -3,-1 -7,1l0 0z"
   sodipodi:nodetypes="ccccc"
   inkscape:connector-curvature="0" />
    <path
   id="path5463"
   class="fil0 str2"
   d="M48 99c-1,2 0,3 1,4 3,0 1,0 6,-1 0,0 2,-2 -1,-4 -1,0 -3,-1 -6,1l0 0z"
   sodipodi:nodetypes="ccccc"
   inkscape:connector-curvature="0" />
    <path
   id="path5465"
   class="fil0 str2"
   d="M17 109c-1,2 0,4 1,4 6,0 7,-4 11,-6 1,0 2,-3 0,-5 -3,0 -13,4 -12,7z"
   sodipodi:nodetypes="ccccc"
   inkscape:connector-curvature="0" />
    <path
   id="path5467"
   class="fil0 str2"
   d="M30 101c-1,2 0,4 2,5 3,0 0,0 5,-1 1,0 3,-3 1,-5 -1,0 -3,0 -6,1 -1,0 -1,0 -2,0l0 0z"
   sodipodi:nodetypes="scccss"
   inkscape:connector-curvature="0" />
    <path
   id="path5469"
   class="fil0 str2"
   d="M40 100c-2,2 -1,3 1,4 3,0 0,0 5,-1 1,0 2,-2 0,-4 -1,0 -3,-1 -6,1l0 0z"
   sodipodi:nodetypes="ccccc"
   inkscape:connector-curvature="0" />
    <g
   id="g7355">
     <path
   class="fil0 str3"
   d="M165 115c0,-1 -1,-1 -2,-2 -1,0 -2,1 -4,-1 -6,-6 -17,-11 -26,-16 -1,1 -3,0 -6,-1 0,-2 -2,-3 1,-5 3,-3 6,1 8,1l2 1c9,5 13,10 24,15 3,0 3,1 3,3 1,1 2,1 3,1l-3 4z"
   id="path7353" />
    </g>
    <g
   id="g7359">
     <path
   class="fil0 str2"
   d="M102 91c-1,2 0,4 2,4 5,0 3,0 9,-1 1,0 1,-3 -1,-5 -1,1 -6,0 -10,2z"
   id="path7357" />
    </g>
    <g
   id="g7363">
     <path
   class="fil0 str2"
   d="M90 93c-1,2 0,3 1,4 5,-1 4,0 10,-1 0,0 1,-3 -1,-5 -1,1 -6,0 -10,2l0 0z"
   id="path7361" />
    </g>
    <g
   id="g7367">
     <path
   class="fil0 str2"
   d="M115 90c-2,2 -1,3 1,4 3,-1 3,0 9,-1 1,0 2,-3 0,-5 -1,1 -7,0 -10,2z"
   id="path7365" />
    </g>
    <g
   id="g7371">
     <path
   class="fil0 str2"
   d="M81 93c-1,3 0,3 1,5 7,-2 2,-1 7,-1 1,0 2,-3 0,-5 -1,0 -4,-1 -8,1z"
   id="path7369" />
    </g>
    <g
   id="g7375">
     <path
   class="fil0 str2"
   d="M73 95c-1,2 0,3 1,4 4,-1 1,0 6,-1 1,0 2,-2 0,-4 -1,0 -3,-1 -7,1l0 0z"
   id="path7373" />
    </g>
    <g
   id="g7379">
     <path
   class="fil0 str2"
   d="M65 96c-1,2 0,3 1,4 3,0 1,0 6,-1 0,0 2,-2 -1,-4 -1,0 -3,-1 -6,1l0 0z"
   id="path7377" />
    </g>
    <g
   id="g7383">
     <path
   class="fil0 str2"
   d="M56 97c-1,2 0,3 2,4 3,0 0,0 5,-1 1,0 2,-2 0,-4 -1,0 -3,-1 -7,1l0 0z"
   id="path7381" />
    </g>
    <g
   id="g7387">
     <path
   class="fil0 str2"
   d="M48 99c-1,2 0,3 1,4 3,0 1,0 6,-1 0,0 2,-2 -1,-4 -1,0 -3,-1 -6,1l0 0z"
   id="path7385" />
    </g>
    <g
   id="g7391">
     <path
   class="fil0 str2"
   d="M17 109c-1,2 0,4 1,4 6,0 7,-4 11,-6 1,0 2,-3 0,-5 -3,0 -13,4 -12,7z"
   id="path7389" />
    </g>
    <g
   id="g7395">
     <path
   class="fil0 str2"
   d="M30 101c-1,2 0,4 2,5 3,0 0,0 5,-1 1,0 3,-3 1,-5 -1,0 -3,0 -6,1 -1,0 -1,0 -2,0l0 0z"
   id="path7393" />
    </g>
    <g
   id="g7399">
     <path
   class="fil0 str2"
   d="M40 100c-2,2 -1,3 1,4 3,0 0,0 5,-1 1,0 2,-2 0,-4 -1,0 -3,-1 -6,1l0 0z"
   id="path7397" />
    </g>
   </g>
   <g
   id="layer3"
   inkscape:groupmode="layer"
   inkscape:label="glowa">
    <g
   id="glowa"
   inkscape:label="#g5419">
     <path
   id="path5291"
   class="fil0 str4"
   d="M237 116c3,8 2,18 1,27 -2,12 -14,17 -29,20l-22 0 -9 -2c1,-5 -3,-9 -7,-13 0,-2 1,-4 3,-6 2,-2 1,-9 2,-14 1,-1 0,-2 -3,-1 -5,3 -10,4 -16,7 -2,1 -2,-1 -3,-2 -1,-1 1,-5 3,-8 3,-2 5,-4 8,-7 3,-8 11,-9 18,-12 7,-4 15,-8 44,-6 4,2 7,4 10,9 2,2 1,5 0,8l0 0z"
   sodipodi:nodetypes="cccccccccccccccccc"
   inkscape:connector-curvature="0" />
     <path
   id="path5295"
   class="fil0 str5"
   d="M177 161c-4,-1 -7,-2 -16,-6 -6,0 -9,3 -13,4 -8,0 -6,-10 -3,-11l4 0 -1 -3 3 0 -2 -3 3 0 0 -3 4 0 1 -2c10,-2 11,6 7,11 6,3 14,2 13,13l0 0z"
   sodipodi:nodetypes="cccccccccccccc"
   inkscape:connector-curvature="0" />
     <path
   id="path5297"
   class="fil0 str6"
   d="M183 142c-1,-3 1,-7 7,-10 4,0 9,-1 11,3 2,9 1,11 -7,15 -8,1 -13,-2 -11,-8l0 0z"
   sodipodi:nodetypes="ccccc"
   inkscape:connector-curvature="0" />
    </g>
   </g>
   <g
   id="layer4"
   inkscape:groupmode="layer"
   inkscape:label="Cialo">
    <g
   id="cialo"
   inkscape:label="#g5589">
     <path
   id="path5300"
   class="fil0 str7"
   d="M236 124c7,2 12,-4 19,-8 6,-4 12,-6 18,-6 9,4 5,9 6,19 8,11 10,13 4,26 -15,8 -14,4 -21,5 -7,0 -14,-11 -21,-18l-6 -1c-10,-8 -3,-14 1,-17l0 0z"
   sodipodi:nodetypes="ccccccccc"
   inkscape:connector-curvature="0" />
     <path
   id="path5302"
   class="fil0 str8"
   d="M278 114c10,0 19,2 25,5 5,5 7,6 6,16l7 18c0,6 0,8 -5,12 -11,-2 -17,-11 -25,-17 2,-10 -2,-12 -7,-20 1,-5 1,-10 -1,-14l0 0z"
   sodipodi:nodetypes="cccccccc"
   inkscape:connector-curvature="0" />
     <path
   id="path5304"
   class="fil0 str9"
   d="M306 120c7,1 -9,1 18,3 8,2 9,8 12,13 5,11 3,10 4,16 1,11 -1,10 -12,10l-12 -3c0,-10 -5,-17 -7,-24 1,-9 -1,-12 -3,-15l0 0z"
   sodipodi:nodetypes="cccccccc"
   inkscape:connector-curvature="0" />
     <path
   id="path5306"
   class="fil0 str10"
   d="M260 152c3,-4 6,-6 -3,-8 0,-2 4,-3 8,-4 13,2 16,5 25,12l9 11c5,9 -1,11 -6,14 -4,0 -8,-2 -11,-2 -6,-7 -10,-13 -15,-20l-7 -3z"
   sodipodi:nodetypes="ccccccccc"
   inkscape:connector-curvature="0" />
     <path
   id="path5308"
   class="fil0 str11"
   d="M256 144c10,1 6,4 4,8l-5 21c-6,24 -11,27 -15,33 -3,-1 -5,-1 -6,-2l0 -8 3 -6c6,-12 12,-29 19,-46l0 0z"
   sodipodi:nodetypes="cccccccc"
   inkscape:connector-curvature="0" />
     <path
   id="path5310"
   class="fil0 str12"
   d="M248 195c-2,8 0,9 -4,15 0,-5 2,-9 0,-9l4 -6z"
   sodipodi:nodetypes="cccc"
   inkscape:connector-curvature="0" />
     <path
   id="path5312"
   class="fil0 str12"
   d="M267 157c-8,8 4,17 13,16l-13 -16z"
   sodipodi:nodetypes="ccc"
   inkscape:connector-curvature="0" />
     <path
   id="path5314"
   class="fil0 str12"
   d="M234 204c-5,5 -6,9 -5,17l-2 10 -2 3c2,2 3,2 5,2 0,-4 2,-6 2,-10 3,-4 2,-8 2,-13 4,-2 4,-4 5,-8l-5 -1z"
   sodipodi:nodetypes="ccccccccc"
   inkscape:connector-curvature="0" />
     <path
   id="path5316"
   class="fil0 str12"
   d="M226 235c-4,3 -5,4 -4,10l3 1c2,-3 3,-7 4,-10l-3 -1z"
   sodipodi:nodetypes="ccccc"
   inkscape:connector-curvature="0" />
     <path
   id="path5318"
   class="fil0 str12"
   d="M221 244l-5 5 2 3 3 -1c1,-3 1,-4 4,-5l-4 -2z"
   sodipodi:nodetypes="cccccc"
   inkscape:connector-curvature="0" />
     <path
   id="path5320"
   class="fil0 str12"
   d="M216 250l-5 2 3 5 2 0 1 -3 1 -2 -2 -2z"
   inkscape:connector-curvature="0" />
     <path
   id="path5322"
   class="fil0 str12"
   d="M211 253l-5 2 -5 4 6 0 -1 2 2 -1 1 4 1 -5 4 -3 -3 -3z"
   inkscape:connector-curvature="0" />
     <path
   id="path5324"
   class="fil0 str12"
   d="M312 159c-4,-8 -6,-3 -8,-1 0,5 1,10 2,15 -1,15 -1,28 2,43 2,-4 4,-3 6,0 3,-12 0,-34 -2,-49l0 -8z"
   sodipodi:nodetypes="ccccccc"
   inkscape:connector-curvature="0" />
     <path
   id="path5326"
   class="fil0 str12"
   d="M308 218c2,-8 4,-4 6,-2 -1,15 -1,27 1,42l-6 0c2,-12 1,-24 0,-36l-1 -4z"
   sodipodi:nodetypes="cccccc"
   inkscape:connector-curvature="0" />
     <path
   id="path5328"
   class="fil0 str12"
   d="M311 259c0,4 0,8 -1,13l6 0c-3,-4 -2,-9 -2,-14l-3 1z"
   sodipodi:nodetypes="ccccc"
   inkscape:connector-curvature="0" />
     <path
   id="path5330"
   class="fil0 str12"
   d="M311 272l0 10 4 0c-1,-4 -1,-7 -1,-10l-3 0z"
   sodipodi:nodetypes="ccccc"
   inkscape:connector-curvature="0" />
     <path
   id="path5332"
   class="fil0 str12"
   d="M311 282c1,6 -1,11 -3,16l3 -2 2 2 2 -2 2 2c-2,-5 -2,-11 -3,-16l-3 0z"
   sodipodi:nodetypes="cccccccc"
   inkscape:connector-curvature="0" />
     <path
   id="path5334"
   class="fil0 str13"
   d="M310 156c6,-1 6,3 8,8 2,6 4,13 6,20 -2,3 -2,4 -6,3l-4 -6c-2,-11 -1,-19 -4,-25l0 0z"
   sodipodi:nodetypes="cccccc"
   inkscape:connector-curvature="0" />
     <path
   id="path5336"
   class="fil0 str12"
   d="M319 167c0,-2 -1,-5 2,-6l6 1c0,7 1,15 -3,22l-5 -17z"
   sodipodi:nodetypes="ccccc"
   inkscape:connector-curvature="0" />
     <path
   id="path5338"
   class="fil0 str12"
   d="M329 163c7,1 11,-3 12,-3 8,3 10,12 13,19l2 5c-13,2 -17,-4 -26,-11 0,-3 -1,-2 -1,-10l0 0z"
   sodipodi:nodetypes="cccccc"
   inkscape:connector-curvature="0" />
     <path
   id="path5340"
   class="fil0 str12"
   d="M356 184l-6 -16c6,-6 12,-32 25,-24 -6,2 -6,5 -3,10 -8,15 1,28 -16,30z"
   sodipodi:nodetypes="ccccc"
   inkscape:connector-curvature="0" />
     <path
   id="path5342"
   class="fil0 str12"
   d="M372 153c-2,-3 -4,-7 4,-9 17,18 28,36 43,57 -3,3 -4,3 -8,3l-27 -35 -12 -16z"
   sodipodi:nodetypes="cccccc"
   inkscape:connector-curvature="0" />
     <path
   id="path5344"
   class="fil0 str12"
   d="M410 202l-3 5 4 -3 -1 -2z"
   inkscape:connector-curvature="0" />
     <path
   id="path5346"
   class="fil0 str12"
   d="M418 201l35 43 -5 3c-8,-14 -22,-29 -33,-43l3 -3z"
   sodipodi:nodetypes="ccccc"
   inkscape:connector-curvature="0" />
     <path
   id="path5348"
   class="fil0 str12"
   d="M452 245l15 11 -4 4 -12 -15 1 0z"
   inkscape:connector-curvature="0" />
     <path
   id="path5350"
   class="fil0 str12"
   d="M466 256l11 7 -2 5 -11 -10 2 -2z"
   inkscape:connector-curvature="0" />
     <path
   id="path5352"
   class="fil0 str12"
   d="M476 264l9 4 -2 4 -8 -5 1 -3z"
   inkscape:connector-curvature="0" />
     <path
   id="path5354"
   class="fil0 str12"
   d="M484 268l9 1 5 4 2 2 -5 -1 -1 6 -2 -6 -8 -4 0 -2z"
   inkscape:connector-curvature="0" />
    </g>
   </g>
   <g
   id="layer5"
   inkscape:groupmode="layer"
   inkscape:label="polczenie">
    <path
   id="polaczenie"
   class="fil0 str12"
   d="M339 141l5 2c2,10 8,13 16,17 -8,1 -11,-2 -19,-5l-2 -14z"
   inkscape:connector-curvature="0"
   sodipodi:nodetypes="ccccc"
   inkscape:label="#path5357" />
   </g>
   <g
   id="layer6"
   inkscape:groupmode="layer"
   inkscape:label="Odwlok">
    <g
   id="odwlok"
   inkscape:label="#g5595">
     <path
   id="path5360"
   class="fil0 str12"
   d="M390 101c15,16 26,52 7,64 -12,3 -25,-2 -35,-6 -11,-1 -15,-8 -18,-17 0,-35 26,-39 46,-41l0 0z"
   sodipodi:nodetypes="ccccc"
   inkscape:connector-curvature="0" />
     <path
   id="path5362"
   class="fil0 str14"
   d="M419 101c10,6 16,31 12,55 0,0 -9,6 -11,6 -8,2 -11,1 -20,1 17,-19 0,-50 -9,-61 7,-2 27,-1 28,-1z"
   sodipodi:nodetypes="cccccc"
   inkscape:connector-curvature="0" />
     <path
   id="path5364"
   class="fil0 str12"
   d="M421 102c-1,0 24,0 25,4 8,11 8,31 3,40 -5,4 -11,6 -18,8 4,-22 -1,-43 -10,-52l0 0z"
   sodipodi:nodetypes="scccs"
   inkscape:connector-curvature="0" />
     <path
   id="path5366"
   class="fil0 str12"
   d="M447 107c8,1 15,2 20,6 4,4 3,5 1,11 -4,9 -9,14 -17,19 4,-13 1,-25 -4,-36z"
   sodipodi:nodetypes="ccccc"
   inkscape:connector-curvature="0" />
    </g>
   </g>
  </g>
 </g><g
   inkscape:groupmode="layer"
   id="layer8"
   inkscape:label="brakujacy-element"><path
     style="clip-rule:evenodd;fill:none;fill-rule:evenodd;stroke:#000000;stroke-width:1px;stroke-linecap:butt;stroke-linejoin:miter;stroke-opacity:1;image-rendering:optimizeQuality;shape-rendering:geometricPrecision;text-rendering:geometricPrecision"
     d="m 171,148 c -2.5,-8.1 -8.6,-9.4 -13.3,-13.4 4.9,-3.1 10.1,-7 15.3,-7.6 5.3,7.9 -0.2,14.2 -2,21 z"
     id="path7997"
     inkscape:connector-curvature="0"
     sodipodi:nodetypes="cccc" /></g>
</svg>